<svg width="512" height="512" viewBox="0 0 512 512" fill="none" xmlns="http://www.w3.org/2000/svg">
<g clip-path="url(#clip0_3_43)">
<path d="M473.115 172.113C474.71 163.561 475.518 154.88 475.529 146.181C475.431 65.3829 409.853 -0.0374932 329.056 0.0600149C267.548 0.13395 212.657 38.6711 191.693 96.4955C154.159 81.5543 111.619 99.8687 96.6766 137.403C95.3833 140.652 94.3246 143.988 93.5092 147.388C33.5771 156.352 -7.74063 212.202 1.22261 272.134C9.26113 325.885 55.4371 365.651 109.784 365.629H201.22C211.32 365.629 219.508 357.441 219.508 347.341C219.508 337.241 211.32 329.053 201.22 329.053H109.784C69.3851 329.053 36.6352 296.304 36.6352 255.904C36.6352 215.505 69.3851 182.755 109.784 182.755C119.885 182.755 128.072 174.567 128.072 164.467C128.105 144.268 144.507 127.92 164.706 127.953C174.259 127.969 183.427 131.722 190.248 138.408C197.441 145.497 209.02 145.412 216.109 138.219C218.771 135.518 220.527 132.057 221.134 128.313C231.061 68.5943 287.519 28.2302 347.238 38.1567C406.957 48.0833 447.321 104.542 437.394 164.26C436.803 167.821 436.035 171.351 435.095 174.835C432.993 182.469 436.041 190.588 442.648 194.951C476.311 217.287 485.493 262.684 463.156 296.346C449.637 316.721 426.831 328.993 402.379 329.051H347.518C337.418 329.051 329.23 337.239 329.23 347.339C329.23 357.439 337.418 365.626 347.518 365.626H402.379C462.978 365.57 512.057 316.398 511.999 255.799C511.969 223.545 497.748 192.937 473.115 172.113Z" fill="black"/>
<path d="M378.321 389.274C371.234 382.43 359.999 382.43 352.913 389.274L292.656 449.494V182.756C292.656 172.656 284.469 164.468 274.368 164.468C264.268 164.468 256.081 172.656 256.081 182.756V449.493L195.861 389.273C188.596 382.256 177.019 382.458 170.003 389.722C163.158 396.809 163.158 408.044 170.003 415.131L261.438 506.566C268.571 513.717 280.15 513.732 287.301 506.598C287.311 506.588 287.322 506.577 287.334 506.566L378.77 415.131C385.787 407.867 385.586 396.29 378.321 389.274Z" fill="black"/>
</g>
<defs>
<clipPath id="clip0_3_43">
<rect width="512" height="512" fill="white"/>
</clipPath>
</defs>
</svg>
