<svg width="512" height="512" viewBox="0 0 512 512" fill="none" xmlns="http://www.w3.org/2000/svg">
<path d="M395.994 213.035V34.7435C395.994 15.5853 380.408 0 361.25 0H78.7526C59.5944 0 44.0091 15.5853 44.0091 34.7435V405.238C44.0091 424.396 59.5944 439.981 78.7526 439.981H291.998V495.979C291.998 508.214 305.248 515.976 315.935 509.87L363.995 482.407C417.077 512.74 414.302 511.978 419.993 511.978C428.829 511.978 435.992 504.804 435.992 495.979V386.957C492.938 332.25 470.382 237.148 395.994 213.035V213.035ZM78.7526 407.982C77.2387 407.982 76.0077 406.752 76.0077 405.238V34.7435C76.0077 33.2296 77.2387 31.9986 78.7526 31.9986H361.25C362.764 31.9986 363.995 33.2296 363.995 34.7435V207.991C306.652 207.991 260 254.643 260 311.987C260 341.413 272.287 368.021 291.998 386.957V407.982H78.7526ZM403.994 468.409L371.933 450.089C367.013 447.278 360.976 447.278 356.057 450.089L323.996 468.409V407.977C349.508 418.648 378.447 418.662 403.993 407.977V468.409H403.994ZM363.995 383.983C324.296 383.983 291.998 351.686 291.998 311.987C291.998 272.287 324.296 239.99 363.995 239.99C403.695 239.99 435.992 272.287 435.992 311.987C435.992 351.686 403.695 383.983 363.995 383.983Z" fill="black"/>
<path d="M355.981 352.987C349.731 352.987 348.935 351.508 323.122 334.299C315.769 329.397 313.782 319.463 318.684 312.112C323.586 304.759 333.52 302.773 340.871 307.674L351.559 314.798L374.683 280.113C379.584 272.76 389.519 270.774 396.87 275.675C404.223 280.577 406.21 290.511 401.308 297.862L369.309 345.86C366.224 350.485 361.15 352.987 355.981 352.987V352.987Z" fill="black"/>
<path d="M275.999 111.995H140.005C131.169 111.995 124.006 104.831 124.006 95.9959C124.006 87.1603 131.169 79.9966 140.005 79.9966H275.999C284.836 79.9966 291.998 87.1603 291.998 95.9959C291.998 104.831 284.835 111.995 275.999 111.995Z" fill="black"/>
<path d="M275.999 175.992H140.005C131.169 175.992 124.006 168.829 124.006 159.993C124.006 151.158 131.169 143.994 140.005 143.994H275.999C284.836 143.994 291.998 151.158 291.998 159.993C291.998 168.829 284.835 175.992 275.999 175.992Z" fill="black"/>
<path d="M220.002 239.99H140.005C131.169 239.99 124.006 232.826 124.006 223.99C124.006 215.155 131.169 207.991 140.005 207.991H220.002C228.837 207.991 236.001 215.155 236.001 223.99C236.001 232.826 228.837 239.99 220.002 239.99Z" fill="black"/>
</svg>
