<svg width="512" height="512" viewBox="0 0 512 512" fill="none" xmlns="http://www.w3.org/2000/svg">
<path d="M272 221.329C272 212.493 264.836 205.33 256 205.33C247.164 205.33 240 212.493 240 221.329H272ZM240 457.76C240 466.596 247.164 473.76 256 473.76C264.836 473.76 272 466.596 272 457.76H240ZM119.37 170.854L117.623 186.758L119.37 170.854ZM244.341 210.895L253.348 197.671L244.341 210.895ZM119.37 425.734L121.117 409.828L119.37 425.734ZM244.341 465.775L253.348 452.55L244.341 465.775ZM392.629 170.854L390.882 154.949L392.629 170.854ZM267.659 210.895L258.652 197.671L267.659 210.895ZM392.629 425.734L390.882 409.828L392.629 425.734ZM267.659 465.775L258.652 452.55L267.659 465.775ZM205.322 104.233C197.673 108.658 195.059 118.445 199.484 126.094C203.908 133.743 213.696 136.357 221.344 131.932L205.322 104.233ZM290.656 131.932C298.304 136.357 308.092 133.743 312.516 126.094C316.941 118.445 314.327 108.658 306.677 104.233L290.656 131.932ZM161.513 56.3104C154.265 61.3658 152.488 71.3393 157.544 78.5869C162.599 85.8344 172.573 87.6117 179.82 82.5564L161.513 56.3104ZM332.179 82.5564C339.428 87.6117 349.402 85.8344 354.455 78.5869C359.511 71.3393 357.734 61.3658 350.487 56.3104L332.179 82.5564ZM240 221.329V457.76H272V221.329H240ZM117.623 186.758C154.629 190.823 202.348 201.646 235.332 224.117L253.348 197.671C213.845 170.759 159.831 159.203 121.117 154.949L117.623 186.758ZM117.623 441.638C154.629 445.702 202.348 456.527 235.332 478.997L253.348 452.55C213.845 425.638 159.831 414.082 121.117 409.828L117.623 441.638ZM69.3333 202.776V389.687H101.333V202.776H69.3333ZM121.117 409.828C109.459 408.548 101.333 399.298 101.333 389.687H69.3333C69.3333 417.615 91.8056 438.801 117.623 441.638L121.117 409.828ZM121.117 154.949C91.9091 151.741 69.3333 175.513 69.3333 202.776H101.333C101.333 192.502 109.355 185.85 117.623 186.758L121.117 154.949ZM390.882 154.949C352.169 159.203 298.155 170.759 258.652 197.671L276.668 224.117C309.653 201.646 357.372 190.823 394.377 186.758L390.882 154.949ZM390.882 409.828C352.169 414.082 298.155 425.638 258.652 452.55L276.668 478.997C309.653 456.527 357.372 445.702 394.377 441.638L390.882 409.828ZM410.667 202.776V389.687H442.667V202.776H410.667ZM394.377 441.638C420.194 438.801 442.667 417.615 442.667 389.687H410.667C410.667 399.298 402.541 408.548 390.882 409.828L394.377 441.638ZM394.377 186.758C402.645 185.85 410.667 192.502 410.667 202.776H442.667C442.667 175.513 420.092 151.741 390.882 154.949L394.377 186.758ZM235.332 478.997C247.733 487.445 264.267 487.445 276.668 478.997L258.652 452.55C257.12 453.594 254.88 453.594 253.348 452.55L235.332 478.997ZM235.332 224.117C247.733 232.565 264.267 232.565 276.668 224.117L258.652 197.671C257.12 198.714 254.88 198.714 253.348 197.671L235.332 224.117ZM221.344 131.932C231.526 126.043 243.345 122.667 256 122.667V90.6667C237.57 90.6667 220.243 95.6017 205.322 104.233L221.344 131.932ZM256 122.667C268.655 122.667 280.474 126.043 290.656 131.932L306.677 104.233C291.757 95.6017 274.43 90.6667 256 90.6667V122.667ZM179.82 82.5564C201.411 67.4965 227.65 58.6667 256 58.6667V26.6667C220.894 26.6667 188.3 37.6262 161.513 56.3104L179.82 82.5564ZM256 58.6667C284.35 58.6667 310.59 67.4965 332.179 82.5564L350.487 56.3104C323.701 37.6262 291.106 26.6667 256 26.6667V58.6667Z" fill="#28303F"/>
</svg>
